<svg width="13" height="13" viewBox="0 0 13 13" fill="none" xmlns="http://www.w3.org/2000/svg">
<path d="M6.49992 1.08333C9.49154 1.08333 11.9166 3.50837 11.9166 6.49999C11.9166 9.49162 9.49154 11.9167 6.49992 11.9167C3.50829 11.9167 1.08325 9.49162 1.08325 6.49999C1.08325 3.50837 3.50829 1.08333 6.49992 1.08333ZM6.49992 3.24999C6.35626 3.24999 6.21848 3.30706 6.1169 3.40865C6.01532 3.51023 5.95825 3.648 5.95825 3.79166V6.49999C5.95828 6.64364 6.01537 6.78139 6.11696 6.88295L7.74196 8.50795C7.84412 8.60662 7.98095 8.66122 8.12297 8.65998C8.26499 8.65875 8.40085 8.60178 8.50128 8.50135C8.60171 8.40093 8.65867 8.26507 8.65991 8.12304C8.66114 7.98102 8.60655 7.8442 8.50788 7.74204L7.04158 6.27574V3.79166C7.04158 3.648 6.98452 3.51023 6.88293 3.40865C6.78135 3.30706 6.64358 3.24999 6.49992 3.24999Z" fill="#808080"/>
</svg>
