<svg width="9" height="11" viewBox="0 0 9 11" fill="none" xmlns="http://www.w3.org/2000/svg">
<path d="M0.600119 6.6375C0.600119 6.28845 0.64107 5.94525 0.72232 5.6066C0.80357 5.2686 0.930319 4.9449 1.10257 4.6368C1.12987 4.58935 1.15717 4.53995 1.18382 4.48925C1.21112 4.43855 1.24362 4.39175 1.28067 4.34755C1.31257 4.30475 1.35226 4.26836 1.39767 4.2403C1.44597 4.21413 1.50004 4.20042 1.55497 4.20042C1.6099 4.20042 1.66397 4.21413 1.71227 4.2403C1.76122 4.26553 1.80185 4.30435 1.82927 4.3521L2.50462 5.4545C2.53388 5.50372 2.57587 5.54413 2.62617 5.5715C2.67973 5.59926 2.73878 5.6148 2.79907 5.617C2.85091 5.61929 2.90252 5.60888 2.94942 5.58668C2.99632 5.56448 3.03709 5.53115 3.06817 5.4896C3.11275 5.43112 3.14365 5.3634 3.15861 5.29141C3.17357 5.21942 3.17221 5.14499 3.15462 5.0736C3.14284 5.03168 3.12762 4.99081 3.10912 4.9514C2.97535 4.66694 2.86154 4.37351 2.76852 4.07325C2.67803 3.76826 2.63356 3.45147 2.63657 3.13335C2.63657 2.70695 2.70807 2.3332 2.84977 2.01145C2.99212 1.6897 3.18972 1.41345 3.44387 1.18335C3.69737 0.953249 3.99377 0.767349 4.33242 0.624999C4.68211 0.479559 5.04649 0.372337 5.41922 0.305199C5.46575 0.296589 5.51363 0.298544 5.55931 0.31092C5.60498 0.323295 5.6473 0.345776 5.68312 0.376699C5.76112 0.443649 5.80012 0.526849 5.80012 0.624999C5.80012 1.13265 5.88657 1.6169 6.05882 2.0771C6.23353 2.54135 6.47482 2.97774 6.77512 3.37255L7.33867 4.10835C7.52847 4.35535 7.70267 4.61275 7.86192 4.88055C8.02117 5.1477 8.14987 5.42525 8.24802 5.7132C8.34552 6.00115 8.39687 6.30925 8.40012 6.6375C8.40012 6.99955 8.35592 7.35185 8.26817 7.69375C8.18202 8.03072 8.05222 8.355 7.88207 8.65835C7.71307 8.95995 7.51287 9.23425 7.28277 9.48125C7.05122 9.72923 6.78836 9.94598 6.50082 10.126C6.20962 10.3087 5.89632 10.4497 5.56157 10.5479C5.21643 10.6471 4.85925 10.6983 4.50012 10.7C4.14107 10.7018 3.78361 10.6521 3.43867 10.5524C3.10903 10.4568 2.79456 10.315 2.50462 10.1312C2.21723 9.9488 1.95293 9.7323 1.71747 9.48645C1.48053 9.23932 1.27886 8.96066 1.11817 8.65835C0.955101 8.35227 0.827315 8.02866 0.737269 7.69375C0.645067 7.34928 0.598948 6.9941 0.600119 6.6375Z" fill="#808080"/>
</svg>
